<svg version="1.2" xmlns="http://www.w3.org/2000/svg" viewBox="0 0 3511 3511" width="75" height="75">
	<title>logo-lua</title>
	<style>
		.s0 { fill: #ffffff } 
	</style>
	<g id="Lune">
		<path id="olho" class="s0" d="m1007 1577.9q14.3-1.4 28 2.8-19.6 15.4-39.2 30.7 21.6 6.1 39.2 19.6-13.7 4.1-28 2.8 2.8 22.3 5.6 44.7-28.1 0.9-55.9 5.6-28.7-2.6-53.1-16.8-18 6.3-36.3 2.8 67.5-50.5 139.7-92.2z"/>
		<path id="lua" fill-rule="evenodd" class="s0" d="m2751.5 718q0 0.1 0 0.2-0.4-0.5-0.9-0.9 1.1 7.3-5.6 11.1-8.5-10.7-16.6-0.1c-205.6-190.6-450.3-272.9-732.2-245.7q-44.7 5.5 0 11.1c43.1 3.8 86.8 9.5 129.3 16.9q0 0 0 0-0.4-0.1-0.8-0.1-13.1 7.1-29.2 6 2.2 0.2 4.3 0.5-3-0.1-6.2-0.5c-74.4-5.9-151.3-7.2-226-3.2q-171.6 41.1-312.9 145.3-309.1 220.2-433.1 578.4-103.2 335.8 178.8 542.1 30.4 33.8-8.4 58.7-45.4 23.3-86.6 53-30.6 48.6 11.2 89.5 19.5 16.7 39.1 33.5 0.3 39-30.7 64.3 17.6 17.6 36.3 36.3-0.8 36.2 0 72.6 229.4 408.1 673.4 561.7 298.4 108 609.1 44.7 13-11.5 22.4-25.2 89-99.7 125.7-229.1 14.5-103.8-69.8-164.9-89.2-51.1-148.1 30.8-20.6 101.2 64.3 156.5 22.3 0 44.7 0v11.1q91.8-13.1 58.6-100.6-50.5-51.9-114.5-19.5-12.5 9.7 2.8 14 57.5-38 100.6 16.7 21 64.5-47.5 78.3v11.1q-9.4 5.5-22.4 5.6-20 1.2-33.5-11.2-59.8-35.6-69.9-106.1-8.5-128 120.2-114.6 143.9 43.4 125.7 192.8-35.3 137.7-131.3 240.3 143.7-29.9 273.8-109 121.2-124.4 111.8-299l11.2 5.6q-9.1-81.7-53.1-150.9-143.1-171.6-349.3-81-180.7 94.7-259.9 282.2-2.7 144.2 103.4 243.1 61.1 53 139.7 36.4-30.3-7-61.4-8.4-173.2-79.3-164.9-271.1 58.8-148.3 192.8-237.5 135.3-93.4 290.6-39.1 126.4 75.4 150.9 220.7l11.2 5.6q25.6 193-103.4 340.9-182.3 187.7-427.5 282.2-352.8 142.7-732.1 114.6-40-11.6-83.8-11.2-668.5-114-1008.8-698.5-311.8-584.3-72.6-1201.5 249.7-543.1 807.5-757.3 535-181.8 1061.8 22.4c131.9 58.4 246.4 142 341.8 249.4zm0 0.2q71.7 70.9 108.1 166.7 26.7 93.5-69.9 92.2 123.7 178.3 19.6 371.7-101.9 195.5-315.8 142.5-291.2-106.8-371.6-405.2-8.7-58 14-111.8-99.1-163.7 78.2-237.5 174.7-11.8 326.9 75.5 5.6-8.4 0-16.8-79.2-121.2-198.3-204-115.4-60.5-242.9-74.5c9.6 0.3 17.5-2 25.7-6.4q139.4 15.5 256.3 92.1 122.4 94.4 195.6 229.1 91.7 55.4 178.8 117.4 23 8.2 47.5 8.4 64.8 2.1 44.7-61.5-42.1-96.7-120.1-167.7 0 0 0.1-0.1 0.4 0.4 0.8 0.8c5.5-7.2 10.1-6.2 15.9 1 4.4-2.5 7.1-7.1 6.4-11.9zm-531.8 2142.2q-567.4-70.5-919.3-516.9-57.1-72.6-81-162.1 22.2-50.9-28-69.8-40.1-7.8-78.2-22.4-17.2-5.7-27.9-19.5 53.5-19.4 103.3-50.3 5.6-11.2 0-22.4-26-32.6-39.1-72.6-7.2-37.3 25.2-58.7 42-29.4 89.4-50.3 7.2-5.8 11.2-14-37.3-31.3-78.3-58.7-81.8-70-120.1-170.4-61.5-231.8 33.5-452.7 161.5-343.1 483.4-544.8 231.1-142.9 503-139.7-730.2-109.3-1254.6 405.1-506.5 575.5-285 1313.3 261.3 705.7 991.9 885.8 570.8 99 1073-187.2 57-32.8 111.7-69.9-78.4 25.7-156.4 53.1-51.6-0.9-89.4 33.5-5.1-1-5.6-5.6-2.9-7-11.2-5.6-125.6 8.6-251.5 2.8zm-128.5-2344.3q2.2 0.3 4.3 0.4-2.2-0.2-4.3-0.4zm273.8 324.1q-20.4 158.8-178.8 159.3-38.2-33.2-47.5 14-6.5 56.3 5.6 111.7 92.1 240.2 326.9 343.7 110.9 52.9 217.9-5.6 225.3-170.9 120.2-433.1-21.9-24.2-30.7-55.9-99.3-51.7-190-117.3-2.8 2.8-5.6 5.6 10.5 29.8 13.9 61.4 4.4 112-33.5 218-60.7 130.2-204 120.1-143.6-53.8-81-192.8 89.7-81 167.6 11.2 5.7 97.7-92.2 86.6-34.9-12.4-25.1-47.5 9.9-10.3 19.5 0-7.7 10.7-2.7 22.4 40.5 34.6 78.2-5.6 27.8-59.7-30.7-86.6-88.1-26.2-120.2 58.7-12.2 131.7 120.2 145.3 119.6-10.2 159.2-123 51.9-141.1 11.2-285-113-82.6-248.7-89.4 48.7 27.5 50.3 83.8zm-201.2-64.3q-88.6 82.6-19.5 181.7 18.1-18.2 36.3-36.4 16.9-17.2 27.9 2.8-29.1 13.8-44.7 42 1.2 6.4 5.6 11.1 88.9 29.1 148.1-47.5 72.5-103.7-25.1-181.6-30.6-4.2-61.5-2.8-35.8 8.1-67.1 30.7zm402.4 1992.3q7 2.9 5.6 11.2 1.4-8.3-5.6-11.2zm-860.6 346.5q-40-11.6-83.8-11.2 39.9 11.7 83.8 11.2z"/>
		<path id="circulo externo" fill-rule="evenodd" class="s0" d="m2750.6 3089.6q-517.7 376-1156.8 321.3-40-11.6-83.8-11.2-709.4-121.7-1126.1-704.1-340.5-507-293.4-1117.7-1.1-41.2 11.2-78.2 141.1-823.5 866.2-1232.3 237.8-126.3 503-170.4 53.7-15.5 111.7-16.8 758.6-66.1 1318.9 444.3 406.4 392.2 497.4 952.8 15.2 56.6 16.7 117.4 55.9 923.3-665 1494.9zm-1855.3-2492.5q-517.3 431-547.7 1106.5 7.8 773 620.3 1235.1 573.4 377.3 1246.2 229.1 849.2-226 1114.9-1064.6 221.3-937.5-533.7-1528.4-511.8-360.6-1134.4-293.4-41.2-1.2-78.3 11.2-383 65.6-687.3 304.5zm698.5 2813.8q-40-11.6-83.8-11.2 40 11.7 83.8 11.2z"/>
	</g>
</svg>